<svg xmlns="http://www.w3.org/2000/svg" xmlns:xlink="http://www.w3.org/1999/xlink" width="520" height="822" viewBox="0 0 520 822" role="img" aria-labelledby="title desc"><title id="title">160步實際自監督loss與test特徵統計</title><desc id="desc">曲線來自22distillation相同設定的真實history，testCLS統計來自22features；random與SSL的1NN及linearprobe全部64比64。</desc><!-- Curve: actual 22-distillation.json history; all160 points; min1.2611021995544434 at step136; max2.7611329555511475 at step19; ylim1.1..2.9; source SHA256 9215b4a6c28ea813fb2d1081769e83af53fe3670d38a1cc91e715cd0f89ed5cd. Frozen test statistics: actual 22-features.json; no PCA or semantic cluster claim. --><rect width="520" height="822" rx="16" fill="#f7f9fc"/><g font-family="Noto Sans CJK TC, sans-serif" font-size="24" fill="#152c43"><text x="24" y="38" font-size="27" fill="#152c43" font-weight="bold">loss 與特徵用途分開看</text><text x="24" y="76" font-size="23" fill="#152c43" font-weight="normal">實際 JSON；相同設定的160步曲線</text><svg x="0" y="116" width="520" height="360" viewBox="0 0 520 360">
 <metadata>
  <rdf:RDF xmlns:dc="http://purl.org/dc/elements/1.1/" xmlns:cc="http://creativecommons.org/ns#" xmlns:rdf="http://www.w3.org/1999/02/22-rdf-syntax-ns#">
   <cc:Work>
    <dc:type rdf:resource="http://purl.org/dc/dcmitype/StillImage"/>
    <dc:date>2026-10-05T12:01:08.035811</dc:date>
    <dc:format>image/svg+xml</dc:format>
    <dc:creator>
     <cc:Agent>
      <dc:title>Matplotlib v3.10.7, https://matplotlib.org/</dc:title>
     </cc:Agent>
    </dc:creator>
   </cc:Work>
  </rdf:RDF>
 </metadata>
 <defs>
  <style type="text/css">*{stroke-linejoin: round; stroke-linecap: butt}</style>
 </defs>
 <g id="figure_1">
  <g id="patch_1">
   <path d="M 0 360 
L 520 360 
L 520 0 
L 0 0 
L 0 360 
z
" style="fill: none"/>
  </g>
  <g id="axes_1">
   <g id="patch_2">
    <path d="M 78 277.2 
L 499.2 277.2 
L 499.2 18 
L 78 18 
L 78 277.2 
z
" style="fill: none"/>
   </g>
   <g id="matplotlib.axis_1">
    <g id="xtick_1">
     <g id="line2d_1">
      <path d="M 78 277.2 
L 78 18 
" clip-path="url(#pab755adc23)" style="fill: none; stroke: #b0b0b0; stroke-opacity: 0.2; stroke-width: 0.8; stroke-linecap: square"/>
     </g>
     <g id="line2d_2">
      <defs>
       <path id="mb03439c719" d="M 0 0 
L 0 3.5 
" style="stroke: #000000; stroke-width: 0.8"/>
      </defs>
      <g>
       <use xlink:href="#mb03439c719" x="78" y="277.2" style="stroke: #000000; stroke-width: 0.8"/>
      </g>
     </g>
     <g id="text_1">
      <text style="font-size: 22px; font-family: 'DejaVu Sans'; text-anchor: middle" x="78" y="300.916562" transform="rotate(-0 78 300.916562)">1</text>
     </g>
    </g>
    <g id="xtick_2">
     <g id="line2d_3">
      <path d="M 181.313208 277.2 
L 181.313208 18 
" clip-path="url(#pab755adc23)" style="fill: none; stroke: #b0b0b0; stroke-opacity: 0.2; stroke-width: 0.8; stroke-linecap: square"/>
     </g>
     <g id="line2d_4">
      <g>
       <use xlink:href="#mb03439c719" x="181.313208" y="277.2" style="stroke: #000000; stroke-width: 0.8"/>
      </g>
     </g>
     <g id="text_2">
      <text style="font-size: 22px; font-family: 'DejaVu Sans'; text-anchor: middle" x="181.313208" y="300.916562" transform="rotate(-0 181.313208 300.916562)">40</text>
     </g>
    </g>
    <g id="xtick_3">
     <g id="line2d_5">
      <path d="M 287.275472 277.2 
L 287.275472 18 
" clip-path="url(#pab755adc23)" style="fill: none; stroke: #b0b0b0; stroke-opacity: 0.2; stroke-width: 0.8; stroke-linecap: square"/>
     </g>
     <g id="line2d_6">
      <g>
       <use xlink:href="#mb03439c719" x="287.275472" y="277.2" style="stroke: #000000; stroke-width: 0.8"/>
      </g>
     </g>
     <g id="text_3">
      <text style="font-size: 22px; font-family: 'DejaVu Sans'; text-anchor: middle" x="287.275472" y="300.916562" transform="rotate(-0 287.275472 300.916562)">80</text>
     </g>
    </g>
    <g id="xtick_4">
     <g id="line2d_7">
      <path d="M 393.237736 277.2 
L 393.237736 18 
" clip-path="url(#pab755adc23)" style="fill: none; stroke: #b0b0b0; stroke-opacity: 0.2; stroke-width: 0.8; stroke-linecap: square"/>
     </g>
     <g id="line2d_8">
      <g>
       <use xlink:href="#mb03439c719" x="393.237736" y="277.2" style="stroke: #000000; stroke-width: 0.8"/>
      </g>
     </g>
     <g id="text_4">
      <text style="font-size: 22px; font-family: 'DejaVu Sans'; text-anchor: middle" x="393.237736" y="300.916562" transform="rotate(-0 393.237736 300.916562)">120</text>
     </g>
    </g>
    <g id="xtick_5">
     <g id="line2d_9">
      <path d="M 499.2 277.2 
L 499.2 18 
" clip-path="url(#pab755adc23)" style="fill: none; stroke: #b0b0b0; stroke-opacity: 0.2; stroke-width: 0.8; stroke-linecap: square"/>
     </g>
     <g id="line2d_10">
      <g>
       <use xlink:href="#mb03439c719" x="499.2" y="277.2" style="stroke: #000000; stroke-width: 0.8"/>
      </g>
     </g>
     <g id="text_5">
      <text style="font-size: 22px; font-family: 'DejaVu Sans'; text-anchor: middle" x="499.2" y="300.916562" transform="rotate(-0 499.2 300.916562)">160</text>
     </g>
    </g>
    <g id="text_6">
     <text style="font-size: 22px; font-family: 'DejaVu Sans'; text-anchor: middle" x="288.6" y="326.208438" transform="rotate(-0 288.6 326.208438)">student step</text>
    </g>
   </g>
   <g id="matplotlib.axis_2">
    <g id="ytick_1">
     <g id="line2d_11">
      <path d="M 78 262.8 
L 499.2 262.8 
" clip-path="url(#pab755adc23)" style="fill: none; stroke: #b0b0b0; stroke-opacity: 0.2; stroke-width: 0.8; stroke-linecap: square"/>
     </g>
     <g id="line2d_12">
      <defs>
       <path id="mdb9a5aace6" d="M 0 0 
L -3.5 0 
" style="stroke: #000000; stroke-width: 0.8"/>
      </defs>
      <g>
       <use xlink:href="#mdb9a5aace6" x="78" y="262.8" style="stroke: #000000; stroke-width: 0.8"/>
      </g>
     </g>
     <g id="text_7">
      <text style="font-size: 22px; font-family: 'DejaVu Sans'; text-anchor: end" x="71" y="271.158281" transform="rotate(-0 71 271.158281)">1.2</text>
     </g>
    </g>
    <g id="ytick_2">
     <g id="line2d_13">
      <path d="M 78 205.2 
L 499.2 205.2 
" clip-path="url(#pab755adc23)" style="fill: none; stroke: #b0b0b0; stroke-opacity: 0.2; stroke-width: 0.8; stroke-linecap: square"/>
     </g>
     <g id="line2d_14">
      <g>
       <use xlink:href="#mdb9a5aace6" x="78" y="205.2" style="stroke: #000000; stroke-width: 0.8"/>
      </g>
     </g>
     <g id="text_8">
      <text style="font-size: 22px; font-family: 'DejaVu Sans'; text-anchor: end" x="71" y="213.558281" transform="rotate(-0 71 213.558281)">1.6</text>
     </g>
    </g>
    <g id="ytick_3">
     <g id="line2d_15">
      <path d="M 78 147.6 
L 499.2 147.6 
" clip-path="url(#pab755adc23)" style="fill: none; stroke: #b0b0b0; stroke-opacity: 0.2; stroke-width: 0.8; stroke-linecap: square"/>
     </g>
     <g id="line2d_16">
      <g>
       <use xlink:href="#mdb9a5aace6" x="78" y="147.6" style="stroke: #000000; stroke-width: 0.8"/>
      </g>
     </g>
     <g id="text_9">
      <text style="font-size: 22px; font-family: 'DejaVu Sans'; text-anchor: end" x="71" y="155.958281" transform="rotate(-0 71 155.958281)">2.0</text>
     </g>
    </g>
    <g id="ytick_4">
     <g id="line2d_17">
      <path d="M 78 90 
L 499.2 90 
" clip-path="url(#pab755adc23)" style="fill: none; stroke: #b0b0b0; stroke-opacity: 0.2; stroke-width: 0.8; stroke-linecap: square"/>
     </g>
     <g id="line2d_18">
      <g>
       <use xlink:href="#mdb9a5aace6" x="78" y="90" style="stroke: #000000; stroke-width: 0.8"/>
      </g>
     </g>
     <g id="text_10">
      <text style="font-size: 22px; font-family: 'DejaVu Sans'; text-anchor: end" x="71" y="98.358281" transform="rotate(-0 71 98.358281)">2.4</text>
     </g>
    </g>
    <g id="ytick_5">
     <g id="line2d_19">
      <path d="M 78 32.4 
L 499.2 32.4 
" clip-path="url(#pab755adc23)" style="fill: none; stroke: #b0b0b0; stroke-opacity: 0.2; stroke-width: 0.8; stroke-linecap: square"/>
     </g>
     <g id="line2d_20">
      <g>
       <use xlink:href="#mdb9a5aace6" x="78" y="32.4" style="stroke: #000000; stroke-width: 0.8"/>
      </g>
     </g>
     <g id="text_11">
      <text style="font-size: 22px; font-family: 'DejaVu Sans'; text-anchor: end" x="71" y="40.758281" transform="rotate(-0 71 40.758281)">2.8</text>
     </g>
    </g>
    <g id="text_12">
     <text style="font-size: 22px; font-family: 'DejaVu Sans'; text-anchor: middle" x="27.437813" y="147.6" transform="rotate(-90 27.437813 147.6)">CE</text>
    </g>
   </g>
   <g id="line2d_21">
    <path d="M 78 155.849462 
L 80.649057 135.924383 
L 83.298113 161.630983 
L 85.94717 168.347887 
L 88.596226 155.630766 
L 91.245283 147.009519 
L 93.89434 132.698248 
L 96.543396 119.207689 
L 99.192453 106.271219 
L 101.841509 95.011709 
L 104.490566 81.325662 
L 107.139623 70.219583 
L 109.788679 59.877809 
L 112.437736 51.997282 
L 115.086792 45.987383 
L 117.735849 41.085455 
L 120.384906 39.666673 
L 123.033962 38.470331 
L 125.683019 37.996854 
L 128.332075 39.43802 
L 130.981132 41.537267 
L 133.630189 45.977289 
L 136.279245 50.184778 
L 138.928302 56.068231 
L 141.577358 62.48332 
L 144.226415 70.049295 
L 146.875472 76.412027 
L 149.524528 83.959222 
L 152.173585 91.087495 
L 154.822642 98.078096 
L 157.471698 105.4778 
L 160.120755 112.212591 
L 162.769811 119.308248 
L 165.418868 125.593561 
L 168.067925 131.110483 
L 170.716981 138.284486 
L 173.366038 144.725805 
L 176.015094 150.023481 
L 178.664151 154.511018 
L 181.313208 159.13022 
L 183.962264 162.212022 
L 186.611321 165.733913 
L 189.260377 166.43218 
L 191.909434 166.487884 
L 194.558491 167.294881 
L 197.207547 164.607832 
L 199.856604 160.428873 
L 202.50566 156.358163 
L 205.154717 151.506704 
L 207.803774 145.033216 
L 210.45283 137.746019 
L 213.101887 130.69465 
L 215.750943 123.236925 
L 218.4 116.573888 
L 221.049057 111.22595 
L 223.698113 106.345926 
L 226.34717 103.014356 
L 228.996226 99.437105 
L 231.645283 96.456789 
L 234.29434 94.236932 
L 236.943396 92.68604 
L 239.592453 91.818876 
L 242.241509 89.838144 
L 244.890566 88.733812 
L 247.539623 89.130796 
L 250.188679 88.012148 
L 252.837736 87.330343 
L 255.486792 88.0701 
L 258.135849 87.74336 
L 260.784906 89.641386 
L 263.433962 91.724222 
L 266.083019 93.86017 
L 268.732075 96.976785 
L 271.381132 100.012342 
L 274.030189 103.246477 
L 276.679245 106.830423 
L 279.328302 110.325586 
L 281.977358 114.317812 
L 284.626415 118.494951 
L 287.275472 121.847841 
L 289.924528 125.234995 
L 292.573585 127.620779 
L 295.222642 129.785841 
L 297.871698 131.992685 
L 300.520755 133.353582 
L 303.169811 134.776414 
L 305.818868 135.962389 
L 308.467925 134.020143 
L 311.116981 133.113874 
L 313.766038 130.034303 
L 316.415094 129.600343 
L 319.064151 126.349969 
L 321.713208 120.579469 
L 324.362264 117.923112 
L 327.011321 113.996736 
L 329.660377 107.556413 
L 332.309434 102.074854 
L 334.958491 95.805883 
L 337.607547 88.337549 
L 340.256604 85.521238 
L 342.90566 78.710779 
L 345.554717 73.697614 
L 348.203774 70.511064 
L 350.85283 67.048483 
L 353.501887 64.601381 
L 356.150943 63.136182 
L 358.8 63.251264 
L 361.449057 64.613054 
L 364.098113 67.355585 
L 366.74717 71.916216 
L 369.396226 75.97429 
L 372.045283 80.935304 
L 374.69434 86.421224 
L 377.343396 90.500585 
L 379.992453 95.584268 
L 382.641509 101.972337 
L 385.290566 104.380197 
L 387.939623 109.786226 
L 390.588679 112.821199 
L 393.237736 115.493967 
L 395.886792 122.102518 
L 398.535849 125.163686 
L 401.184906 128.933611 
L 403.833962 136.343752 
L 406.483019 151.105411 
L 409.132075 150.375181 
L 411.781132 152.017019 
L 414.430189 166.141351 
L 417.079245 183.788004 
L 419.728302 188.982013 
L 422.377358 189.680349 
L 425.026415 205.907362 
L 427.675472 206.251937 
L 430.324528 248.006216 
L 432.973585 238.514629 
L 435.622642 254.001283 
L 438.271698 250.939771 
L 440.920755 247.513256 
L 443.569811 244.658098 
L 446.218868 235.500341 
L 448.867925 216.855787 
L 451.516981 205.8617 
L 454.166038 191.326976 
L 456.815094 182.003069 
L 459.464151 166.745325 
L 462.113208 170.493431 
L 464.762264 143.422517 
L 467.411321 144.549474 
L 470.060377 129.996812 
L 472.709434 132.746862 
L 475.358491 128.003893 
L 478.007547 131.736292 
L 480.656604 121.640062 
L 483.30566 122.670683 
L 485.954717 145.678629 
L 488.603774 146.180669 
L 491.25283 153.805524 
L 493.901887 157.512209 
L 496.550943 164.136621 
L 499.2 165.70437 
" clip-path="url(#pab755adc23)" style="fill: none; stroke: #4672b1; stroke-width: 2.2; stroke-linecap: square"/>
   </g>
   <g id="patch_3">
    <path d="M 78 277.2 
L 78 18 
" style="fill: none; stroke: #000000; stroke-width: 1.5; stroke-linejoin: miter; stroke-linecap: square"/>
   </g>
   <g id="patch_4">
    <path d="M 78 277.2 
L 499.2 277.2 
" style="fill: none; stroke: #000000; stroke-width: 1.5; stroke-linejoin: miter; stroke-linecap: square"/>
   </g>
  </g>
 </g>
 <defs>
  <clipPath id="pab755adc23">
   <rect x="78" y="18" width="421.2" height="259.2"/>
  </clipPath>
 </defs>
</svg>

<text x="24" y="511" font-size="25" fill="#152c43" font-weight="bold">凍結 CLS：64 張 test 圖</text><text x="30" y="559" font-size="24" fill="#152c43" font-weight="normal">特徵</text><text x="235" y="559" font-size="24" fill="#152c43" font-weight="normal">std</text><text x="367" y="559" font-size="24" fill="#152c43" font-weight="normal">cosine</text><text x="30" y="614" font-size="24" fill="#152c43" font-weight="normal">random</text><text x="235" y="614" font-size="24" fill="#152c43" font-weight="normal">0.084</text><text x="367" y="614" font-size="24" fill="#152c43" font-weight="normal">0.992</text><text x="30" y="666" font-size="24" fill="#152c43" font-weight="normal">SSL</text><text x="235" y="666" font-size="24" fill="#152c43" font-weight="normal">0.330</text><text x="367" y="666" font-size="24" fill="#152c43" font-weight="normal">0.856</text><text x="30" y="722" font-size="23" fill="#152c43" font-weight="normal">std：跨圖每維標準差，再平均</text><text x="30" y="759" font-size="23" fill="#152c43" font-weight="normal">cosine：不同圖兩兩相似度的平均</text><text x="30" y="801" font-size="23" fill="#152c43" font-weight="normal">test 1-NN / probe：兩者皆64/64</text></g></svg>
